<svg width="280" height="280" viewBox="0 0 280 280" fill="none" xmlns="http://www.w3.org/2000/svg">
<path d="M230.498 109.425C230.498 109.425 198.695 132.318 227.116 190.68C252.358 242.511 182.93 257.203 154.446 248.714C117.547 237.717 100.553 188.09 70.333 200.37C40.1134 212.649 18.225 141.637 62.4916 120.569C117.558 94.3614 85.9144 72.973 92.8052 50.5173C97.7508 34.4007 147.951 13.5993 170.887 45.0873C190.187 71.5832 201.654 63.8818 211.87 61.5823C226.603 58.266 255.407 85.7188 230.498 109.425Z" fill="#DEE9FF"/>
<path d="M230.879 129.868L230.661 131.224C230.479 132.354 229.857 133.365 228.929 134.036C228.002 134.706 226.847 134.981 225.717 134.799L225.618 134.784C224.666 134.631 223.691 134.801 222.847 135.267C222.004 135.733 221.34 136.468 220.963 137.355L190.37 209.307C189.487 211.386 187.934 213.11 185.957 214.204C183.98 215.297 181.694 215.696 179.463 215.338L94.1425 201.63C91.8622 201.269 89.775 200.136 88.23 198.42C86.685 196.705 85.776 194.51 85.6549 192.205L81.418 115.056C81.364 114.072 80.9751 113.137 80.316 112.405C79.6568 111.673 78.7671 111.189 77.7947 111.033C77.2353 110.943 76.6991 110.744 76.2168 110.447C75.7344 110.15 75.3152 109.76 74.9832 109.301C74.6513 108.842 74.413 108.322 74.2819 107.771C74.1509 107.22 74.1298 106.648 74.2197 106.089L74.4375 104.733C74.5274 104.174 74.7265 103.637 75.0236 103.155C75.3207 102.673 75.7099 102.253 76.169 101.921C76.628 101.589 77.148 101.351 77.6992 101.22C78.2504 101.089 78.8219 101.068 79.3813 101.158L115.524 106.965C116.079 107.054 116.648 106.981 117.162 106.754C117.677 106.527 118.115 106.157 118.424 105.687L143.666 67.2771C144 66.7661 144.475 66.3628 145.033 66.1157C145.591 65.8686 146.209 65.7883 146.812 65.8845C147.25 65.9522 147.667 66.1139 148.037 66.3585C148.385 66.5866 148.685 66.8811 148.92 67.2253C149.155 67.5694 149.319 67.9565 149.404 68.3643C149.489 68.7721 149.493 69.1926 149.416 69.6019C149.338 70.0112 149.18 70.4011 148.952 70.7495L126.702 104.597C126.435 105.004 126.274 105.471 126.233 105.956C126.193 106.441 126.274 106.929 126.471 107.374C126.667 107.82 126.971 108.209 127.357 108.507C127.742 108.804 128.196 109.001 128.676 109.078L176.779 116.806C177.26 116.883 177.752 116.839 178.212 116.677C178.671 116.515 179.082 116.241 179.408 115.879C179.734 115.517 179.964 115.079 180.078 114.606C180.191 114.132 180.184 113.638 180.057 113.168L169.512 74.0531C169.3 73.2406 169.416 72.3769 169.836 71.6498C170.257 70.9226 170.947 70.3907 171.757 70.1697C172.184 70.053 172.632 70.0303 173.069 70.1032C173.671 70.2007 174.233 70.4704 174.685 70.8799C175.138 71.2894 175.463 71.8212 175.62 72.411L187.56 116.795C187.706 117.338 188.006 117.827 188.424 118.204C188.841 118.58 189.359 118.828 189.914 118.917L227.303 124.924C227.863 125.014 228.399 125.213 228.881 125.51C229.364 125.807 229.783 126.197 230.115 126.656C230.447 127.115 230.685 127.635 230.816 128.186C230.947 128.737 230.969 129.309 230.879 129.868Z" fill="#9333EA"/>
<path d="M117.628 119.3L108.206 117.786C108.13 117.773 108.058 117.825 108.046 117.902L96.8164 187.79C96.8041 187.866 96.856 187.938 96.9324 187.95L106.354 189.464C106.431 189.476 106.503 189.425 106.515 189.348L117.744 119.46C117.756 119.384 117.704 119.312 117.628 119.3Z" fill="#DEE9FF"/>
<path d="M195.624 131.609L186.202 130.095C186.126 130.082 186.054 130.134 186.042 130.211L174.812 200.099C174.8 200.175 174.852 200.247 174.928 200.259L184.35 201.773C184.427 201.786 184.498 201.734 184.511 201.657L195.74 131.769C195.752 131.693 195.7 131.621 195.624 131.609Z" fill="#DEE9FF"/>
<path d="M137.031 122.438L127.612 120.92C127.536 120.908 127.464 120.96 127.452 121.036L116.197 190.901C116.184 190.977 116.236 191.049 116.313 191.061L125.731 192.579C125.808 192.591 125.88 192.539 125.892 192.463L137.147 122.598C137.159 122.522 137.107 122.45 137.031 122.438Z" fill="#DEE9FF"/>
<path d="M156.643 125.345L147.221 123.831C147.145 123.819 147.073 123.871 147.061 123.947L135.832 193.835C135.819 193.912 135.871 193.984 135.948 193.996L145.37 195.51C145.446 195.522 145.518 195.47 145.53 195.394L156.759 125.506C156.772 125.429 156.72 125.357 156.643 125.345Z" fill="#DEE9FF"/>
<path d="M176.134 128.477L166.712 126.963C166.636 126.951 166.564 127.003 166.552 127.079L155.322 196.967C155.31 197.043 155.362 197.115 155.438 197.128L164.86 198.641C164.937 198.654 165.008 198.602 165.021 198.525L176.25 128.637C176.262 128.561 176.21 128.489 176.134 128.477Z" fill="#DEE9FF"/>
</svg>
